<?xml version="1.0" encoding="UTF-8"?><svg xmlns="http://www.w3.org/2000/svg" viewBox="0 0 365.56 48.33"><defs><style>.cls-1{fill:#00a5da;}.cls-1,.cls-2{stroke-width:0px;}.cls-2{fill:#fff;}</style></defs><g id="Calque_1"><g id="titre_job"><polygon class="cls-1" points="365.56 0 347.53 0 347.53 0 12.23 0 12.23 0 0 0 12.23 22.37 12.23 25.95 0 48.33 26.42 48.33 26.42 48.32 339.14 48.32 339.14 48.33 365.56 48.33 352.35 24.16 365.56 0"/></g></g><g id="Calque_2"><path class="cls-2" d="M79.95,14.9v18.95h-4.62v-11.37l-4.24,11.37h-3.73l-4.27-11.39v11.39h-4.62V14.9h5.45l5.32,13.12,5.27-13.12h5.43Z"/><path class="cls-2" d="M87.34,32.8c-1.48-.83-2.66-1.98-3.54-3.47-.87-1.49-1.31-3.15-1.31-5.01s.44-3.52,1.31-5c.87-1.48,2.05-2.63,3.54-3.46,1.49-.83,3.12-1.24,4.9-1.24s3.42.41,4.9,1.24c1.48.83,2.65,1.98,3.51,3.46s1.28,3.14,1.28,5-.43,3.52-1.3,5.01c-.86,1.49-2.03,2.64-3.51,3.47-1.48.83-3.1,1.24-4.89,1.24s-3.42-.41-4.9-1.24ZM95.87,28.31c.91-1.01,1.36-2.34,1.36-4s-.45-3.01-1.36-4.01c-.91-1-2.12-1.5-3.63-1.5s-2.75.5-3.66,1.48c-.91.99-1.36,2.33-1.36,4.02s.45,3.01,1.36,4.01c.91,1,2.13,1.5,3.66,1.5s2.72-.5,3.63-1.51Z"/><path class="cls-2" d="M118.13,14.9v3.7h-5.02v15.25h-4.62v-15.25h-5.02v-3.7h14.66Z"/><path class="cls-2" d="M125.07,14.9v18.95h-4.62V14.9h4.62Z"/><path class="cls-2" d="M132.48,32.8c-1.48-.83-2.66-1.98-3.54-3.47-.87-1.49-1.31-3.15-1.31-5.01s.44-3.52,1.31-5c.87-1.48,2.05-2.63,3.54-3.46,1.49-.83,3.12-1.24,4.9-1.24s3.42.41,4.9,1.24c1.48.83,2.65,1.98,3.51,3.46s1.28,3.14,1.28,5-.43,3.52-1.3,5.01c-.86,1.49-2.03,2.64-3.51,3.47-1.48.83-3.1,1.24-4.89,1.24s-3.42-.41-4.9-1.24ZM141.01,28.31c.91-1.01,1.36-2.34,1.36-4s-.45-3.01-1.36-4.01c-.91-1-2.12-1.5-3.63-1.5s-2.75.5-3.66,1.48c-.91.99-1.36,2.33-1.36,4.02s.45,3.01,1.36,4.01c.91,1,2.13,1.5,3.66,1.5s2.72-.5,3.63-1.51Z"/><path class="cls-2" d="M166.6,33.85h-4.62l-7.72-11.69v11.69h-4.62V14.9h4.62l7.72,11.75v-11.75h4.62v18.95Z"/><path class="cls-2" d="M188.01,16.08c1.49.79,2.65,1.9,3.47,3.33.82,1.43,1.23,3.08,1.23,4.95s-.41,3.5-1.23,4.94c-.82,1.44-1.98,2.56-3.48,3.35-1.5.79-3.24,1.19-5.22,1.19h-7.1V14.9h7.1c2,0,3.74.4,5.24,1.19ZM186.55,28.42c.97-.95,1.46-2.3,1.46-4.05s-.49-3.1-1.46-4.08c-.97-.97-2.33-1.46-4.08-1.46h-2.19v11.02h2.19c1.75,0,3.1-.48,4.08-1.43Z"/><path class="cls-2" d="M199.91,18.6v3.83h6.18v3.56h-6.18v4.16h6.99v3.7h-11.61V14.9h11.61v3.7h-6.99Z"/><path class="cls-2" d="M213.04,33.36c-1.1-.45-1.98-1.12-2.63-2-.66-.88-1-1.94-1.04-3.19h4.91c.07.7.32,1.24.73,1.61.41.37.95.55,1.62.55s1.22-.16,1.62-.47.59-.75.59-1.31c0-.47-.16-.85-.47-1.16-.32-.31-.7-.56-1.16-.76-.46-.2-1.11-.42-1.96-.67-1.22-.38-2.22-.76-3-1.13s-1.44-.94-2-1.67c-.56-.74-.84-1.7-.84-2.89,0-1.76.64-3.15,1.92-4.14s2.94-1.5,5-1.5,3.77.5,5.05,1.5c1.28,1,1.96,2.39,2.05,4.17h-5c-.04-.61-.26-1.09-.67-1.44s-.94-.53-1.59-.53c-.56,0-1.01.15-1.35.45s-.51.73-.51,1.28c0,.61.29,1.09.86,1.43.58.34,1.48.71,2.7,1.11,1.22.41,2.22.81,2.98,1.19.76.38,1.43.93,1.98,1.65s.84,1.65.84,2.78-.27,2.06-.82,2.94c-.55.88-1.35,1.58-2.39,2.11s-2.28.78-3.7.78-2.63-.22-3.73-.68Z"/><path class="cls-2" d="M231.13,14.9v18.95h-4.62V14.9h4.62Z"/><path class="cls-2" d="M247.06,20.89c-.34-.63-.83-1.11-1.47-1.44s-1.39-.5-2.25-.5c-1.49,0-2.69.49-3.59,1.47-.9.98-1.35,2.29-1.35,3.93,0,1.75.47,3.11,1.42,4.09.95.98,2.25,1.47,3.9,1.47,1.13,0,2.09-.29,2.88-.87.78-.58,1.35-1.4,1.71-2.48h-5.86v-3.4h10.04v4.29c-.34,1.15-.92,2.22-1.74,3.21s-1.86,1.79-3.12,2.4c-1.26.61-2.68.92-4.27.92-1.87,0-3.54-.41-5.01-1.23-1.47-.82-2.61-1.96-3.43-3.42-.82-1.46-1.23-3.12-1.23-5s.41-3.54,1.23-5.01c.82-1.47,1.96-2.61,3.42-3.43,1.46-.82,3.12-1.23,5-1.23,2.27,0,4.18.55,5.74,1.65,1.56,1.1,2.59,2.62,3.09,4.56h-5.1Z"/><path class="cls-2" d="M272,33.85h-4.62l-7.72-11.69v11.69h-4.62V14.9h4.62l7.72,11.75v-11.75h4.62v18.95Z"/><path class="cls-2" d="M279.97,18.6v3.83h6.18v3.56h-6.18v4.16h6.99v3.7h-11.61V14.9h11.61v3.7h-6.99Z"/><path class="cls-2" d="M299.62,33.85l-3.94-7.15h-1.11v7.15h-4.62V14.9h7.75c1.49,0,2.77.26,3.82.78,1.05.52,1.84,1.24,2.36,2.15.52.91.78,1.92.78,3.04,0,1.26-.36,2.39-1.07,3.38s-1.76,1.69-3.15,2.11l4.37,7.51h-5.21ZM294.58,23.43h2.86c.85,0,1.48-.21,1.9-.62s.63-1,.63-1.75-.21-1.29-.63-1.7-1.06-.62-1.9-.62h-2.86v4.7Z"/></g></svg>